{
  "accessors": [
    {
      "name": "5Hi120cellHecatonicosachoron Group001RGBff0000_0_positions",
      "componentType": 5126,
      "count": 12852,
      "min": [
        -6.285830974578857,
        -6.342692852020264,
        -6.462806224822998
      ],
      "max": [
        6.285830974578857,
        6.342692852020264,
        6.462806224822998
      ],
      "type": "VEC3",
      "bufferView": 0,
      "byteOffset": 0
    },
    {
      "name": "5Hi120cellHecatonicosachoron Group001RGBff0000_0_normals",
      "componentType": 5126,
      "count": 12852,
      "min": [
        -0.998193085193634,
        -0.994046688079834,
        -0.9995115399360657
      ],
      "max": [
        0.998193085193634,
        0.994046688079834,
        0.9995115399360657
      ],
      "type": "VEC3",
      "bufferView": 1,
      "byteOffset": 0
    },
    {
      "name": "5Hi120cellHecatonicosachoron Group001RGBff0000_0_indices",
      "componentType": 5123,
      "count": 12852,
      "min": [
        0
      ],
      "max": [
        12851
      ],
      "type": "SCALAR",
      "bufferView": 2,
      "byteOffset": 0
    }
  ],
  "asset": {
    "generator": "obj2gltf",
    "version": "2.0"
  },
  "buffers": [
    {
      "name": "5-Hi,120-cell,Hecatonicosachoron",
      "byteLength": 334152,
      "uri": "data:application/octet-stream;base64,"
    }
  ],
  "bufferViews": [
    {
      "name": "bufferView_0",
      "buffer": 0,
      "byteLength": 154224,
      "byteOffset": 0,
      "byteStride": 12,
      "target": 34962
    },
    {
      "name": "bufferView_1",
      "buffer": 0,
      "byteLength": 154224,
      "byteOffset": 154224,
      "byteStride": 12,
      "target": 34962
    },
    {
      "name": "bufferView_2",
      "buffer": 0,
      "byteLength": 25704,
      "byteOffset": 308448,
      "target": 34963
    }
  ],
  "materials": [
    {
      "name": "Material_0",
      "pbrMetallicRoughness": {
        "baseColorFactor": [
          1,
          0,
          0,
          1
        ],
        "metallicFactor": 0,
        "roughnessFactor": 1
      },
      "emissiveFactor": [
        0,
        0,
        0
      ],
      "alphaMode": "OPAQUE",
      "doubleSided": false
    }
  ],
  "meshes": [
    {
      "name": "5Hi120cellHecatonicosachoron Group001RGBff0000",
      "primitives": [
        {
          "attributes": {
            "POSITION": 0,
            "NORMAL": 1
          },
          "indices": 2,
          "material": 0,
          "mode": 4
        }
      ]
    }
  ],
  "nodes": [
    {
      "name": "5-Hi, 120-cell, Hecatonicosachoron",
      "mesh": 0
    }
  ],
  "scene": 0,
  "scenes": [
    {
      "nodes": [
        0
      ]
    }
  ]
}
