{
  "accessors": [
    {
      "name": "Icosa Group001RGBff0000_0_positions",
      "componentType": 5126,
      "count": 60,
      "min": [
        -6.805206298828125,
        -6.805206298828125,
        -6.805206298828125
      ],
      "max": [
        6.805206298828125,
        6.805206298828125,
        6.805206298828125
      ],
      "type": "VEC3",
      "bufferView": 0,
      "byteOffset": 0
    },
    {
      "name": "Icosa Group001RGBff0000_0_normals",
      "componentType": 5126,
      "count": 60,
      "min": [
        -0.9341723322868347,
        -0.9341723322868347,
        -0.9341723322868347
      ],
      "max": [
        0.9341723322868347,
        0.9341723322868347,
        0.9341723322868347
      ],
      "type": "VEC3",
      "bufferView": 1,
      "byteOffset": 0
    },
    {
      "name": "Icosa Group001RGBff0000_0_indices",
      "componentType": 5123,
      "count": 60,
      "min": [
        0
      ],
      "max": [
        59
      ],
      "type": "SCALAR",
      "bufferView": 2,
      "byteOffset": 0
    }
  ],
  "asset": {
    "generator": "obj2gltf",
    "version": "2.0"
  },
  "buffers": [
    {
      "name": "Icosa",
      "byteLength": 1560,
      "uri": "data:application/octet-stream;base64,"
    }
  ],
  "bufferViews": [
    {
      "name": "bufferView_0",
      "buffer": 0,
      "byteLength": 720,
      "byteOffset": 0,
      "byteStride": 12,
      "target": 34962
    },
    {
      "name": "bufferView_1",
      "buffer": 0,
      "byteLength": 720,
      "byteOffset": 720,
      "byteStride": 12,
      "target": 34962
    },
    {
      "name": "bufferView_2",
      "buffer": 0,
      "byteLength": 120,
      "byteOffset": 1440,
      "target": 34963
    }
  ],
  "materials": [
    {
      "name": "Material_0",
      "pbrMetallicRoughness": {
        "baseColorFactor": [
          1,
          0,
          0,
          1
        ],
        "metallicFactor": 0,
        "roughnessFactor": 1
      },
      "emissiveFactor": [
        0,
        0,
        0
      ],
      "alphaMode": "OPAQUE",
      "doubleSided": false
    }
  ],
  "meshes": [
    {
      "name": "Icosa Group001RGBff0000",
      "primitives": [
        {
          "attributes": {
            "POSITION": 0,
            "NORMAL": 1
          },
          "indices": 2,
          "material": 0,
          "mode": 4
        }
      ]
    }
  ],
  "nodes": [
    {
      "name": "Icosahedron (3.3.3.3.3), W4, p17",
      "mesh": 0
    }
  ],
  "scene": 0,
  "scenes": [
    {
      "nodes": [
        0
      ]
    }
  ]
}
