{
  "accessors": [
    {
      "name": "120CellLinkedRingsSpinning Group001RGB80ff00_0_positions",
      "componentType": 5126,
      "count": 900,
      "min": [
        -13.47060775756836,
        -13.127609252929688,
        -12.312211990356445
      ],
      "max": [
        4.636173725128174,
        5.903581619262695,
        12.80034065246582
      ],
      "type": "VEC3",
      "bufferView": 0,
      "byteOffset": 0
    },
    {
      "name": "120CellLinkedRingsSpinning Group001RGB80ff00_0_normals",
      "componentType": 5126,
      "count": 900,
      "min": [
        -0.9971134066581726,
        -0.9971255660057068,
        -0.9995043873786926
      ],
      "max": [
        0.9717360138893127,
        0.9759628772735596,
        0.9944437146186829
      ],
      "type": "VEC3",
      "bufferView": 1,
      "byteOffset": 0
    },
    {
      "name": "120CellLinkedRingsSpinning Group001RGB80ff00_0_indices",
      "componentType": 5123,
      "count": 900,
      "min": [
        0
      ],
      "max": [
        899
      ],
      "type": "SCALAR",
      "bufferView": 2,
      "byteOffset": 0
    },
    {
      "name": "120CellLinkedRingsSpinning Group002RGB8080ff_0_positions",
      "componentType": 5126,
      "count": 900,
      "min": [
        -3.2141551971435547,
        -10.404513359069824,
        -12.312211990356445
      ],
      "max": [
        11.499588012695312,
        10.055440902709961,
        12.80034065246582
      ],
      "type": "VEC3",
      "bufferView": 0,
      "byteOffset": 10800
    },
    {
      "name": "120CellLinkedRingsSpinning Group002RGB8080ff_0_normals",
      "componentType": 5126,
      "count": 900,
      "min": [
        -0.9717360138893127,
        -0.9971255660057068,
        -0.9995043873786926
      ],
      "max": [
        0.9970613718032837,
        0.9971255660057068,
        0.9944437146186829
      ],
      "type": "VEC3",
      "bufferView": 1,
      "byteOffset": 10800
    },
    {
      "name": "120CellLinkedRingsSpinning Group002RGB8080ff_0_indices",
      "componentType": 5123,
      "count": 900,
      "min": [
        0
      ],
      "max": [
        899
      ],
      "type": "SCALAR",
      "bufferView": 2,
      "byteOffset": 1800
    }
  ],
  "asset": {
    "generator": "obj2gltf",
    "version": "2.0"
  },
  "buffers": [
    {
      "name": "120Cell-LinkedRings-Spinning",
      "byteLength": 46800,
      "uri": "data:application/octet-stream;base64,"
    }
  ],
  "bufferViews": [
    {
      "name": "bufferView_0",
      "buffer": 0,
      "byteLength": 21600,
      "byteOffset": 0,
      "byteStride": 12,
      "target": 34962
    },
    {
      "name": "bufferView_1",
      "buffer": 0,
      "byteLength": 21600,
      "byteOffset": 21600,
      "byteStride": 12,
      "target": 34962
    },
    {
      "name": "bufferView_2",
      "buffer": 0,
      "byteLength": 3600,
      "byteOffset": 43200,
      "target": 34963
    }
  ],
  "materials": [
    {
      "name": "Material_0",
      "pbrMetallicRoughness": {
        "baseColorFactor": [
          0.5,
          1,
          0,
          1
        ],
        "metallicFactor": 0,
        "roughnessFactor": 1
      },
      "emissiveFactor": [
        0,
        0,
        0
      ],
      "alphaMode": "OPAQUE",
      "doubleSided": false
    },
    {
      "name": "Material_1",
      "pbrMetallicRoughness": {
        "baseColorFactor": [
          0.5,
          0.5,
          1,
          1
        ],
        "metallicFactor": 0,
        "roughnessFactor": 1
      },
      "emissiveFactor": [
        0,
        0,
        0
      ],
      "alphaMode": "OPAQUE",
      "doubleSided": false
    }
  ],
  "meshes": [
    {
      "name": "120CellLinkedRingsSpinning Group001RGB80ff00",
      "primitives": [
        {
          "attributes": {
            "POSITION": 0,
            "NORMAL": 1
          },
          "indices": 2,
          "material": 0,
          "mode": 4
        }
      ]
    },
    {
      "name": "120CellLinkedRingsSpinning Group002RGB8080ff",
      "primitives": [
        {
          "attributes": {
            "POSITION": 3,
            "NORMAL": 4
          },
          "indices": 5,
          "material": 1,
          "mode": 4
        }
      ]
    }
  ],
  "nodes": [
    {
      "name": "120 Cell - Linked Rings - Spinning",
      "children": [
        1,
        2
      ]
    },
    {
      "name": "120CellLinkedRingsSpinning Group001RGB80ff00",
      "mesh": 0
    },
    {
      "name": "120CellLinkedRingsSpinning Group002RGB8080ff",
      "mesh": 1
    }
  ],
  "scene": 0,
  "scenes": [
    {
      "nodes": [
        0
      ]
    }
  ]
}
