{
  "accessors": [
    {
      "name": "1Pen5cellPentachoron Group001RGBff0000_0_positions",
      "componentType": 5126,
      "count": 48,
      "min": [
        -1.6370927095413208,
        -1.9560019969940186,
        -1.7176049947738647
      ],
      "max": [
        1.6696419715881348,
        1.8358453512191772,
        2.0427000522613525
      ],
      "type": "VEC3",
      "bufferView": 0,
      "byteOffset": 0
    },
    {
      "name": "1Pen5cellPentachoron Group001RGBff0000_0_normals",
      "componentType": 5126,
      "count": 48,
      "min": [
        -0.8199151158332825,
        -0.9402003288269043,
        -0.9323793053627014
      ],
      "max": [
        0.8199151158332825,
        0.9402003288269043,
        0.9323793053627014
      ],
      "type": "VEC3",
      "bufferView": 1,
      "byteOffset": 0
    },
    {
      "name": "1Pen5cellPentachoron Group001RGBff0000_0_indices",
      "componentType": 5123,
      "count": 48,
      "min": [
        0
      ],
      "max": [
        47
      ],
      "type": "SCALAR",
      "bufferView": 2,
      "byteOffset": 0
    }
  ],
  "asset": {
    "generator": "obj2gltf",
    "version": "2.0"
  },
  "buffers": [
    {
      "name": "1-Pen,5-cell,Pentachoron",
      "byteLength": 1248,
      "uri": "data:application/octet-stream;base64,"
    }
  ],
  "bufferViews": [
    {
      "name": "bufferView_0",
      "buffer": 0,
      "byteLength": 576,
      "byteOffset": 0,
      "byteStride": 12,
      "target": 34962
    },
    {
      "name": "bufferView_1",
      "buffer": 0,
      "byteLength": 576,
      "byteOffset": 576,
      "byteStride": 12,
      "target": 34962
    },
    {
      "name": "bufferView_2",
      "buffer": 0,
      "byteLength": 96,
      "byteOffset": 1152,
      "target": 34963
    }
  ],
  "materials": [
    {
      "name": "Material_0",
      "pbrMetallicRoughness": {
        "baseColorFactor": [
          1,
          0,
          0,
          1
        ],
        "metallicFactor": 0,
        "roughnessFactor": 1
      },
      "emissiveFactor": [
        0,
        0,
        0
      ],
      "alphaMode": "OPAQUE",
      "doubleSided": false
    }
  ],
  "meshes": [
    {
      "name": "1Pen5cellPentachoron Group001RGBff0000",
      "primitives": [
        {
          "attributes": {
            "POSITION": 0,
            "NORMAL": 1
          },
          "indices": 2,
          "material": 0,
          "mode": 4
        }
      ]
    }
  ],
  "nodes": [
    {
      "name": "1-Pen, 5-cell, Pentachoron",
      "mesh": 0
    }
  ],
  "scene": 0,
  "scenes": [
    {
      "nodes": [
        0
      ]
    }
  ]
}
